<svg id="Layer_1" data-name="Layer 1" xmlns="http://www.w3.org/2000/svg" viewBox="0 0 736.27 560.5"><defs><style>.cls-1{fill:#e1b047;}.cls-1,.cls-10,.cls-2,.cls-5{stroke:#000;stroke-miterlimit:10;}.cls-1,.cls-5{stroke-width:8px;}.cls-2{fill:#59322e;stroke-width:4px;}.cls-3{fill:#60724f;}.cls-4{fill:#4b543e;}.cls-5{fill:#9d928a;}.cls-6{fill:#7c453d;}.cls-7{font-size:33.1px;}.cls-7,.cls-8,.cls-9{fill:#fff;}.cls-7,.cls-8{font-family:FairwaterScript-Bold, Fairwater Script;font-weight:700;}.cls-8{font-size:38.18px;}.cls-10{fill:none;stroke-width:2px;}</style></defs><title>VF4 - Color SVG</title><ellipse class="cls-1" cx="368.13" cy="354.53" rx="364.65" ry="200.74"/><path class="cls-2" d="M689.67,348c0-33.33-150.48-16-150.48-49.38v66.67c0,33.33,151.45,25.64,151.45,59l-1-76.26"/><path class="cls-3" d="M411.71,343.92l-.52.08.31.14Z"/><path class="cls-3" d="M520,261.36l-.11.15h0Z"/><path class="cls-3" d="M525.84,306.12l-.37.11.25.06Z"/><path class="cls-3" d="M533.16,297.73l5.39,1.69-.4-1.47,10.41-4.68c-.62-1.81-1.24-3.64-1.75-5.15l-11.4.87,6.31-11.15-12.9,2c3.37-4,3.39-4.09-.9-4.89-4.84-.9-9.74-1.57-14.65-2.34-.41,6.58-1.14,7.43-7.1,8.59,5.6-8.88,3.71-11.16-8.81-12.4-3.2-.32-6.11-3-9.15-4.65l1-1.7c9.55,2.53,19.59,4.15,28.46,7.93,5.42,2.31,8.68,1.1,12.93-1.68l-14.84-2.13,4.09-5.06-1.38-2.36,8.82-3,3-6.57,6.22.26c.26-.69.52-1.39.79-2.08l-8.12-3.16c5.46-1,1.85-3,.73-4.19l10.5-5.07-15.83-3.64,4.27-2.4c-.14-.36-.29-.73-.43-1.1l-8.14,1.26c1,2.24,1.81,4,2.7,6h-5.41l4.05,5.77c-8.32.36-5.81-10.19-13.64-9,.11-.18.31-.35.34-.54.34-2.42.65-4.84,1-7.78l-10.54-1.21c2.28-2,4.39-3.3,5.34-5.06.46-.85-1.29-2.63-1.71-3.39L518,212.48l-.07-1.88-8.45-1.78,19.34-4.41-.23-1.65c-9.39-2.09-17.8-3.87-26.51-6.42h.56c5.31-.49,10.56-1.52,15.26-2.25l7.58-5.14c-3.9-1.42-7.8-1-11.59-1.36S506.64,186,503,185.11c.17-.31-3.14,2.53.51-.92s9.17-1.42,13.76-2.14c1.14-1.13-3.49-1.73-4.88-2.39s-6.93.51-8.59-1.08,2.45-2.46,3.35-3.36l-12-3.73c2.08-1.88,4.07-5,5.59-4.82a7.27,7.27,0,0,0,1.75,0l2.6-1.21-.51.56c6.37-3.07,9.34-14.5,5.48-10.16-4.57,5.15-6.38,3.12-8-2.43,1.55-.12,3.73-2.3,4.61-2.37s-9.61-2.32-9.84-3.68,6.32-2.89,4.64-3.49-17.71.18-23.54-6.52c.91-2.4,1.09-4.27,11.66-5.09-2.88-2.93-6.31-2.23-9.27-2.21-2.7,0-3.27,1.32-5.66.56-4.31-1.37-.69-3.23-4.87-5.13,6.95-2.58,3.25.25,15.59,1.65-2-2.3-4.36-4.66-5-5.93-2.08-4-2.83-3.83-8.07-1.13-2.57,1.32-4.54,1.74-5.93,1.3l1.65,2,3.83.37-3.86.51-2.61-3.16-1.25-.66h.8a7.19,7.19,0,0,1-1.21-4.41c2.41.54,5.31,2.08,7.46,1.49,5.24-1.44,4.76-2.45,9.66-3.24-1.86-4-5-1.87-7.16-2.57-4.43-1.74-6.57-6.46-9.09-8.94-1-2-1.65-3.48-2.34-4.9,8.25,3.1,8.25,3.1,10.66-2.63-5,2-10.92-1.21-15.39,1.24l1.84,3.82-1-.12-.91-3.67a8.14,8.14,0,0,0-2.93,2.94c-5-2-1.81-4.09.91-6L449.6,89.6c8,.57,14.1,8.33,20.28.77-4.88-2.73-14-5.7-14.9-8.35s4.16.49,6.93-1.35c-3.76-1-8.86-4.24-8.83-5.68s3.33.69,5.16-.28c-2.78-1.5-5.89-4.47-7.65-6-5.6-4.84-6.29-4.8-9,1.53l4.93.83c-6.49,2.71-9.74,13.79-6,11s4.19.18,6.05,3.35c-3.16.18-4.66-1.31-7.31,1.53s-4.41,10.24-2.82,8.35,3.87-3.14,8.4-.94a2.66,2.66,0,0,0,.27.61l1.18-.82h1.4l-1.94.86-.47.21c1,1.27,2.9.57,3.44,2.37l-7.4-1.6c7.64,13-4.14,15.87-12,21.44,4.83-.15,8.75-2.21,12.81-2.48,8.11-.53,1.66-5.33,7-6.71,8.11,5.17.73.21,2.12,5.09-5.5,2-15.9,9.57-13.18,9,7.85-1.64,10.81,3.1,3.47,6.64-3.4,1-9.87,4.5-9.87,8.69,5.84-4.5,11.66-1.94,21.4-5.93l-.84-.23h1.4l1-.42c0,.14,0,.28,0,.42h1.95l2.2,1.17h-2.35l-1.77-.49c.07,2,.13,3.61.2,5.28l3.33.51h-3.31c0,.87.06,1.75.1,2.7-1.93-.6-3.95-.81-5.16-1.31l-1.58.63-3.93,2,4.64-3.26s-.06-.06-.08-.1c-3-5.32-5.37-2.66-8,.12-3.31,3.57-3,4.36-3.7,6L431.32,143c.51-.76,1-1.51,1.61-2.25-9.29,1-15.44-.59-16.2-8.36l7,.56.76-2-9.74-6.24,6.77-2.74c-8.51-8.2-30.46-6.54-29.77-13.61s18.44,4.45,18.44,4.45-1.72-11.68-4.47-14.11-8-4.58-10.33-3.9-7.33,2.2-10.32.69c-5.4-2.73-2.25-6-7.34-9.41,13.88,4.71,24.1-2.3,29.61,7.14,0-3.87-.31-6.16-1.12-7.9-3.1-6.65-9.78-3.75-17.5-1.24a17.71,17.71,0,0,1-5.8,1.06l-.57.54-3.28-1.58h.63c-1.54-1.27-2-3.68-1.37-7.23,3.08,1.22,7,5.24,9.57,3.54,5.9-4,8.26-4.73,17.17-.81-3.51-7.49-6.94-8.7-10.75-10S385.72,63.16,383,59.32c-.77-2.94-1.3-5-1.84-7,10.21,5.86,10.21,5.86,14.93-1.29-8.95,2-17.77-7-25.68,1.81a6.86,6.86,0,0,1-2.77-2.53H364l-3,1.38,2.51-2.76,4.13,1.34c-1-2.24,2.48-3.77,5.55-5.22l-6.79-6.34c10.51,2.42,16.68,14.07,26.91,5.24-5.81-4.66-18.12-10.68-17.74-14.25s6.54.49,10.72-1.4c-4.77-2.1-11.93-6-11.42-8.39s5.09,0,7.78-.89c-3.32-2.58-7.51-5.62-9.46-8-6.23-7.63-7.17-7.73-12.48.17,1.48.48,2.95,1,6.37,2.13-10.67,2.59-18.58,21-12.57,14.81s8.74,4.64,6.17,6.82c-3.31,2.8-17.14,5.57-16,9.8,6.17-2.35,11.32,1.79,17.95-.74.34,3.44.22,2.24.52,5.19-3.21-1.24-6.43,1.77-10.41.23,3.92,10.83.49,12.58-5.54,15.94-8.32,2.76-14.49,7.06-15.45,8.86s8.63-3.59,18.06-3.19c11,.47,7.63,3.24,3.36,5.78s-5.11,2.63-6.4,4.7,3.29,3-3.4,5.92,2,4.57-4.15,5.06-14.42,13.72-6.27,7.85c9.58-6.35,13.42.84,29.32-5.16-.68,4.29-1.17,7.43-1.73,11,.31.17.5.31.48.39s-.22.06-.54,0c-.08.48-.16,1-.24,1.49-1.46-.72-3-1.27-4.32-1.79-4.53.34-7.41,2.83-7.51,2.65s2.33-2.58,5.68-3.46a2.81,2.81,0,0,1-1.49-1.37c-2.64-7.74-8.29-4.37-10.66-1.49s-8.6,8.7-15.29,10.81-.89,2.77,6.28,5.45c-5.56,2.76-7,4.41-7,5.88s7-1,7.67-.42a5.34,5.34,0,0,0,1.78-3.09h-.14a.71.71,0,0,1,.15,0,6.31,6.31,0,0,1,2.19-4.3l4.13,2.23c1.26-1,2.36-.75,3.41-.77.69-.29,1.15-.51,1.39-.63.89-.44.81-.47,1.67-.87a16.18,16.18,0,0,1,4.94-1.68c2.35-.24,5.2.6,5.09,1.41-.14,1-5.25,2.19-10.61,3.08-10.31,6.2-15.61,5.65-16.41,8.22s-12.47,9.65-19.12,9.3c.79,2.22,4.61,1.06,7.4,3.58L297.3,147a68.39,68.39,0,0,0-6.71-3.46c1.11-2.68-1.35-3.87,1.55-5s9.6,2.15,8.33.13-7.71-5-7.45-5.81c1.59-4.84-5.68-6.06-4.24-6.69s3.51-1.61,6.26,1.51,9.41,7,6.06,4.29-.25-11.86-8.62-11.07,3.21-7.67,2.9-9c-.46-2-9.55-1.52-5.64-4.81s10.73,6.57,10.48,4.42-3-7-5.55-9.81,12.58-9.51-4-17.11l5-.67c-2.48-6.42-3.17-6.48-9-1.82-1.81,1.46-4.32,2.23-7.15,3.64l4.42,2.55-9,2,6.86,4.92-15.23,7.87c5.87,7.75,12.31.19,20.3-.12l-6,3.65c2.64,2,5.79,4.12.66,6-4.19-7.45-12.09-2.15-18.2-4.8,1.94,5.19,2.17,5.73,8.18,3.75l-2-.23,3.72-.35.6-.21-.1.16,2.25-.21L274.56,112,273,111.8c-1.68,1.68-5.2,4.32-6.06,6-2.62,2.39.13,7.69-5.11,6.52s-15.09,4.75-11.91,4.17c4-.74,10.78-1.28,14.18,1.72,1.67,1.47,5.08-.79,7.51-1.25-.35,5.52-3.15,6.9-8.73,3.79-5.13-2.86-8.47-2.57-11.85,1.81-.88,1.14-1.39,1.24-3.23,3.69-1.58,2.11,14.52-3,16.15,3.14-4.25,1.76-3.42-.51-7.78.73-2.41.68-.37,1.69-3.07,1.58-6.73-1.91-8.86-.34-8.86-.34s3.76,5,9.67,6.2c-6.1,6.51-13.62,1.29-21.16,6,1.36.89,9.25,1.66,7.07,1.84a24.4,24.4,0,0,0-6.08,1.66c-1.29.5-4.6,2.43-5.49,3.85s7.66-3,6.21.79-10.06,6.27-14.61,7.36,3.76,8,12.67,7.32c1.53-.12,3.39,3.06,5.4,5-3.76,1-17.72-4.91-22.16-3.68.86.93,11.79,8.92,13.24,10.49-8.6-2.21-11.1-5.95-16.69-5.62-.05.81-8.39,4.07-.38,8l17.14,3.23c0,.57,0,.46,0,1-3.49.74-6.95,1.77-10.49,2-3.8.27-7.67-.3-11.63,1l7.37,5.38c4.67.88,9.87,2.08,15.16,2.73a8.44,8.44,0,0,0,5.45-1.63c2.74-2.07,5-4.65,8.48-8,1.23,3.51,2.08,5.94,3.41,9.7l-6.38-2.61c.18.6.36,1.19.55,1.79-12.16,3.82-25.38,4-38,6.4,0,.87,0,.73,0,1.6l19.15,5-8.69,1.54c0,1.07,0,.79,0,1.85L229,225.86c-.45.74-2.27,2.47-1.85,3.32.88,1.79,2.94,3.13,5.13,5.24l-10.58.87c.27,2.94.49,5.38.73,7.81,0,.18.21.36.32.54-7.78-1.44-5.7,9.18-14,8.55l4.29-5.63-5.41-.19c1-1.92,1.83-3.65,2.94-5.85L202.42,239l-.42,1.1,4.17,2.53-16,3.13,10.29,5.4c-1.17,1.18-4.86,3.05.56,4.22l-8.24,2.9.37,2.1,6.56-.06,2.7,6.66,8.69,3.29-1.48,2.31,3.88,5.19-14.91,1.65c4.13,2.92,7.35,4.23,12.85,2.1,9-3.49,19.12-4.79,28.77-7l.94,1.73c-3.1,1.51-6.11,4.13-9.33,4.35-12.56.84-14.54,3.06-9.29,12.11-5.92-1.35-6.61-2.22-6.76-8.82-4.94.62-9.86,1.13-14.73,1.88-4.33.66-4.3.77-1.1,4.86l-12.81-2.42L193,299.53l-11.36-1.24-2,5.1,10.21,5-.45,1.47,5.45-1.53L206,314.05l.32.61L202.16,317l4,1.35L195,326.79l.39.84,24.71-5.77c-2.34,12.67-11.67,7.92-18.46,8.59,4.51,5.93,7.91,6.4,15,3.47,2.27-.94,5.63.22,9.89.51-3,3.73-4.75,6-7.32,9.26l4.23-1.1c-2.74,11.56-5.27,23.1-8.23,34.55-9.25,35.75-19.22,76.15-29.35,111.7l23,4.34q5.44-31.46,11.68-62.79c4.93-25,10.17-49.94,15.29-74.9.25-1.21.57-2.41,1.17-5,3.71,6.38,6.78,11.68,9.85,17l1.4,0c-.38-2.29-.3-4.74-1.25-6.82-1.65-3.61-3.94-7-6.48-11.35l12-.19c-4.2-2.36-8.69-3.77-11-6.6-1.52-1.83.08-5.72.36-9.9l11.86,8.64c2.5-6.93-4.5-11-8.62-18l7.18,3.57-3.37-7.35,5.4.25,3.42,7.79,1.92-.06c.16-2.45.32-4.89.56-8.42l21.59,7.65c0-1.15,0-2-.06-3.08l10.45,4.25,1.27-1.68-11.87-9.78-1.82,2-.4-5.44,5.52.67c.38-1,.33-.88.72-1.9l-27.51-19c.34-.77.26-.6.61-1.36l4.29,1c.41-.73.37-.66.77-1.39L257,284.37l.89-1.24,11.81,6c1.29,7.74,13.78,14.73,23.46,12.24l-15.62-10.91c.37-.64.23-.39.61-1l.68.34-.18.07h.31l13.67,6.72,1-2-3.16-1.78.92-.37,6.21,1.43.18.25.4-.11,7.84,1.8-10.46,4.58c12.07,5.73,30.85-.43,35-10.38l17.56-5c.22.65.44,1.3.67,2l-11.59,7.47,1.13,1.69,5.13-.25c.43.64.85,1.28,1.27,1.92l-43.19,18.59c.36.8.71,1.61,1.06,2.41l7.53.49c-.89,2.84-1.57,5-2.24,7.13l-1-1.78-19.62,8.64c.39.84.77,1.69,1.16,2.54l15.2-3c-.35,1.39-.65,2.55-1,4.06l31.07-4.74c-.8,4.75-1.35,8-1.9,11.31l2.52.57,7-9.48,7.24,1-6.79,8.91,10.66-2.95c-7.65,8.19-18.24,11.88-17.1,21.7l18.46-8.5c-.94,5.62,0,11.19-2.64,13.24-4,3.16-10.43,3.91-16.74,6l15.92,3.26c-4.73,5.16-8.84,9.07-12.17,13.46-1.91,2.52-2.58,5.79-3.81,8.73l1.85.39,18.42-20.06c0,3.54.05,5.21,0,6.88-1.07,34.42-1.2,47.89-2.53,82.3-1,17.09-4.29,33.13-5,42.79h31.9c-2.24-49.72-2.74-41.42-3.76-91.18-.32-15.95-.05-31.9-.05-47.93l5.28,2.52c-2.39-5-4.05-8.43-6.8-14.13,5.74.68,10.57,0,13.28,1.81,8.45,5.66,13.12,5.88,21-.86-8.8-2.59-22.69,1.38-21.8-16l31.09,13.9.68-1.06-12.13-14,5.55-.77-6-2.7,1.91-2.26,16.57-4.81,6.76,3.39-.15-2.06,15.13-4.09c-.34-2.54-.7-5.13-1-7.25L429,323l7.95-9.53,8.85-3.25c-.06,1.05-.11,1.92-.18,3.06l21.88-6.95c.1,3.54.16,6,.22,8.43l1.92.13,3.73-7.67,5.41-.08-3.67,7.24,7.32-3.35c-4.39,6.81-11.55,10.69-9.33,17.69l12.2-8.26c.11,4.19,1.55,8.13,0,9.91-2.47,2.75-7,4-11.3,6.24l12,.57c-2.71,4.28-5.13,7.59-6.93,11.14-1,2.05-1,4.5-1.53,6.78l1.4.07,10.53-16.64c.5,2.56.77,3.77,1,5,4.1,25.11,8.34,50.21,12.26,75.34q4.9,31.53,9.14,63.13l23.16-3.6c-8.68-35.85-17-76.55-24.82-112.57-2.49-11.54-4.56-23.15-6.84-34.79l4.2,1.23-6.95-9.49c4.27-.15,7.67-1.2,9.9-.18,6.94,3.15,10.36,2.79,15.1-3-6.75-.89-16.27,3.56-18.1-9.18L532,317l.34-.85-10.78-8.75,3.91-1.19-4.72-1.29c.35-.62.71-1.23,1.07-1.85ZM456.47,89.57l.89,1.09-3.75-1.52ZM452,78.91l.27.91L450,78Zm-7.46,6.77,4.39.95v.94Zm6,12.58.28.36-1.87.24-.4-.76Zm-.25,5.34-2,1.84L450,103l2.78,1.21Zm2.59,22.1-3.94.36,5.1-1.24Zm-1.69-5.26,4.12-3.15.31-3.37.55,3.51ZM378,40.68h-2.88l-.9-2.83Zm-5.93-21.2L373.6,22l-4-3.74Zm-6.91,7,.29,1.55-2.36-3.1ZM362,38.37l-4.36.9-.34-.52.64.22.83-.22,3.21-.9,2.57,1.42ZM292.5,89.21l.16-.67v2l-.92,2.81Zm.16,15.29,1.19.65-4-.65ZM268,125.67l1.94-.68,3.75,1.36Zm-6.68,20.64,2.85,1.45-5.87-2Zm4,4.7h4.53l-5.88,1.1H257Zm-30.13,23.64-4.6-1,4.44-.54,9.55-.47Zm21.07-6.33-7.86-2.75-9.45-.12,8.83-1.06,8.14,2.93,6.5-1.47Zm.8-8.38-9.28-1.48,9.63-.09L268,156.8Zm13.79,9.52-2-.12,2-2.59Zm-.36-24.2,1.28-3.22.2,3.4Zm1.66-6.9-3.43.19-2.93-.79,2.47.23,3.16,0,2.93-.95Zm3.45-20.6-4.35.16,3.93-.74,3.73-2.15Zm16.94,29-6.74,1.61,2-1.17Zm-4-35.79,2.27,1.42-3-1ZM285,100.6l-3.15,1.27L287,98.79Zm2.79,32.14.78,1.07-3.2-1.42Zm-1.71-14.08-.23,4.27-1.18,1Zm-2,20.35,1.29,2.27,2.42.76-3.71-.57Zm-2.56,24.07-1.83,3.66,1.08-4.82,8.87,3.15Zm16.41,3.09-3.32-5-12.56-5,12.45,3.73,5.09,5,6.43-.78Zm8.82-13.45-9.78,2,8.55-3.92,17.27,3.92Zm31.75-9.32-7.38,5.83H324l.8-3.51.32,2.64h5.05l8.6-6.08,15.83-1.59Zm-3.66-7.78s1.42-.29,4.06-1a53.52,53.52,0,0,0,5.7-1.79c.77-.31.71-.31,1.46-.6a23,23,0,0,1,4.28-1.29c2-.33,4.45-.14,4.34.28C354.35,132.39,334.87,135.73,334.83,135.62Zm19.84-11-5.23-.39,7.89-1.56Zm.75-58.24c-.12-.2,2.59-2.8,6.61-3.82,2.51-.65,5.27-.61,5.36-.17s-1.77,1.09-3,1.45a29.15,29.15,0,0,1-4,.62A18.45,18.45,0,0,0,355.42,66.34ZM366.52,70v1l-5.11,1.62ZM353.15,80.14l2.79-1.56-2.79,3.11Zm-3.21,10.62c0-.05.88-.44,2.39-1.55a14.77,14.77,0,0,0,3.11-2.89c.39-.5.33-.52.71-1a6.08,6.08,0,0,1,2.37-2.07c1.3-.47,3.22,0,3.41.8C362.43,86.18,350,91,349.94,90.76Zm11.47,4.11,3.1-1.76V94Zm4.27,40.76H363l2.72-2.53Zm1-23.86-1-1.43,1-1.43Zm-1-28.68.84-.75,1.21.75Zm42,40.91s-1.49-.36-4.37-.79a38.43,38.43,0,0,0-6.37-.52c-.89,0-.84.07-1.7.07a16.19,16.19,0,0,1-4.75-.48c-2.07-.64-4.2-2.29-3.83-2.86C387.67,117.85,407.7,123.82,407.67,124Zm-20.88-23.07c2.55,0,4.71.95,4.66,1.21s-3.26-.81-7,.46a17.86,17.86,0,0,0-3.86,2c-3,1.87-4.17,3.27-4.36,3.1s1.46-3.55,4.81-5.42A11.64,11.64,0,0,1,386.79,100.93ZM378.31,94l1.48,1.35L376.21,94ZM386.75,72c0,.26-2,.79-4.24.62-.94-.08-4.07-.32-6.1-2.69-.9-1.06-1.47-2.41-1.24-2.59s1.56,1.77,3.93,3.11C382.81,72.58,386.74,71.68,386.75,72Zm-7-11.79,3.44,3.94-4.69-2.8-4.32-5.09Zm-8.17,61.33v-2.43l.75,1.22Zm.75-44,5.1,1-2.55.51ZM374.22,116l9-3.16-7,3.16Zm7.9,21.11L378,139.6l3.17-4,5.44,2.84Zm6.84-5.92c-4.82-2.27-8-2.4-8.13-2.69s6.67-.59,12.72,2.85c2.47,1.41,2.42,2.06,4.87,3.42,5.81,3.21,11.34,2.45,11.78,3,.31.4-2,1-5.31.55a29.49,29.49,0,0,1-8.28-2.79C392.75,133.65,392.51,132.81,389,131.14Zm12.94,14.62h11.36l10.8-2L413,147.3Zm22.16,8.09-9-1.79,9-.5,6.38,3Zm40.61-2.62,1,5.24-1.57-2.05Zm-.1-41.94,4.92,1.4-4.92-.37-2.35-3.16ZM462.69,160l-9.07-1.36,2.49-1.5-.65,1.43Zm-4.33-16.57,3.86,1.41-4.26-.44-5.74.44Zm-12.62,9.45-7.91,3.62,7.31-5.24,12.22-2Zm11,12.81-6.69,1-2.44,1.5,1.28-2.18,8.34-.83,8.64,1.65Zm11.59-31.82.15,4.56-.89-5,4.09-1.32ZM499,174.78h3.4l-3.4,1.54h-6Zm-20.29-14.25,9,8,6.42-2-6.89,3.24-7.84-7.59-2.82,2.22Zm-3-5.46,5.3-.65,6.24,2.69-5.56-1.35Zm26.7,3.83h-4l1-.57-4.22-2.14-9.31-5ZM478.67,142l10.14,2-9.45-.57-6.42,1.41Zm7.15,40-8.65-1.74-4.23-4,5,3.24,9.56,2,4.67,3.12,8.8-1.07-8.52,1.93Z"/><path class="cls-3" d="M202,317.13l.16-.09-.27-.09Z"/><path class="cls-3" d="M209.65,272.57h0l-.11-.15Z"/><path class="cls-3" d="M346.78,117.75a2.75,2.75,0,0,1-1.74.56,46.86,46.86,0,0,1-5.18,1.74c-2.54.72-4.1,1-4.55,1.1,0,0,0,0,0,.06.9,0,6.69-.66,12.22-1.59q.94-.56,2-1.2C349,117.83,347.89,119.12,346.78,117.75Z"/><path class="cls-3" d="M356.53,106.22a21.71,21.71,0,0,1,3.91.33l.06-.41a9.34,9.34,0,0,0-3.14-1,8.85,8.85,0,0,0-3.31.26,17.09,17.09,0,0,0,1.83.81C356.1,106.24,356.31,106.22,356.53,106.22Z"/><path class="cls-3" d="M383.23,84.88l-1.12-.78h-2.37a5.16,5.16,0,0,0,3.22,1Z"/><path class="cls-3" d="M273.23,111l-1.76.58,1.55.19a6.36,6.36,0,0,0,.71-.82Z"/><path class="cls-3" d="M443.81,95.86l1.46-.65a2.2,2.2,0,0,1-.17-.25Z"/><path class="cls-3" d="M466.37,121.35l-.81-1h-.63A3,3,0,0,0,466.37,121.35Z"/><path class="cls-3" d="M453.62,131.49l-.56.23,1.58.45,0-.68Z"/><path class="cls-3" d="M449.8,139.35l3.52-1.39h1.54l0-.51-2-.3L450,138l-1.11.78A2,2,0,0,0,449.8,139.35Z"/><path class="cls-3" d="M457.36,96.1l.09.36.07,0Z"/><path class="cls-3" d="M499.28,168.14l3.87-.56,1.48-1.6a7.93,7.93,0,0,1-2.09.65Z"/><path class="cls-3" d="M367.73,50.27l-.11,0s0,0,0,0Z"/><path class="cls-4" d="M408.51,338.18l-.49.07.3.13Z"/><path class="cls-4" d="M412.12,281.24l-.18.16h0Z"/><path class="cls-4" d="M519.51,261.17l-.1.13h0Z"/><path class="cls-4" d="M436.82,256l0,0a1.13,1.13,0,0,0,.1-.13Z"/><path class="cls-4" d="M525,302.91l-.34.11.23.06Z"/><path class="cls-4" d="M287.92,158l2.54.76A2.56,2.56,0,0,0,287.92,158Z"/><path class="cls-4" d="M531.8,295.09l5,1.58c-.12-.46-.24-.92-.37-1.38l9.71-4.36c-.58-1.69-1.16-3.4-1.64-4.81l-10.63.82,5.89-10.4-12,1.87c3.14-3.72,3.16-3.82-.85-4.57-4.51-.84-9.08-1.46-13.66-2.19-.38,6.15-1.06,6.94-6.63,8,5.23-8.28,3.47-10.41-8.21-11.57-3-.3-5.69-2.83-8.53-4.33.31-.53.63-1.06.95-1.59,8.9,2.36,18.27,3.87,26.55,7.4,5,2.15,8.1,1,12.06-1.57l-13.85-2,3.82-4.73-1.29-2.19,8.23-2.81c.55-1.23,1.58-3.52,2.76-6.13l5.8.24c.25-.65.49-1.29.73-1.94l-7.57-2.95c5.1-.93,1.73-2.78.68-3.91l9.8-4.72-14.77-3.4,4-2.24-.41-1-7.59,1.18,2.52,5.55h-5l3.78,5.38c-7.76.34-5.42-9.5-12.73-8.39.11-.16.3-.32.32-.5.32-2.26.61-4.52,1-7.25l-9.83-1.13c2.12-1.9,4.09-3.08,5-4.73.42-.78-1.21-2.45-1.6-3.15l14.51-1.62-.06-1.75-7.88-1.67,18-4.11-.21-1.54c-1.3.24-21-3.68-16.72-9.34,3.38-4.42,13.83,3.91,13.33,2.05s-6.79-6.51-10.33-6.87-8-.39-9.65-3.16,15.77-2.29,12.84-3-3.12-1.49-5.29-2.06-3,.21-7.27-.18c1.42-1.43,4.21-1.79,3.12-3.13s-7.71-2.41-11.17-3.48q.51-.48,1-1H493l5.79-1.49c1.05-1.15,2-2.08,2.84-2,8.28.92,8.17-4.7,10.83-9.8-6.16,1.66-10.54,1.23-12.08-3.95,1.44-.11,9.89,1.17,7.52-.25a30.4,30.4,0,0,0-5.63-2.57c-1.31-.5-8-2.81-6.44-3.94s5.36,1.8,2.92-2.07-13,1.46-18.44-4.79c3.46-1.56,6.11-.94,8.14-1.24s7.22-.59,8-1.75c-3.74-1-9.9-2.64-12.66-2.62-2.52,0-5.28.63-7.51-.08-3.73-1.18-4.64-2.73-7.86-4.37l.1,3-.57-3.21-.33-.16.28-.11-.27-1.52,4.09-1.32-3.35,1.76,0,.89c11.69-4.45,16.36.28,18.39.27s.2-2.27-.07-3.58c-.47-2.23-5.84-1.86-11.64-2.07-4.42-.16-7.88,1.37-8-3.79,2.24.5,4.94,1.94,6.95,1.39,4.89-1.35,3.57-4.29,12.35-2.49-3.37-4.7-4.76-7.85-10-2.93l-8.48-8.34-1.3-2.72-2-.15-2-2.67a10.4,10.4,0,0,0-.89,1.25c-4.7-1.89-2.45-2.66.08-4.41-1.69-1.11-7-6-1.34-3.39s15.84,1.58,12.35.57-9.06-5.07-13.9-7.79l6.57-4.38-8.34-2.17,4.21-2.25c-2.59-1.39-4.89-2.19-6.53-3.6-1.09-1-2-1.68-2.73-2.21l.16.55-1.71-1.43c-1.7-.58-2.55.81-4.15,4.51l4.6.77a14.83,14.83,0,0,0-4,2.55l1.9.41v.94l-2.3-1C440.75,92,438,101.26,438,101.26c4-4.23,5.37-6.6,9.81-2.72-8.69,5.83-6.7,9.58-11.33,15.64,7.77-2,7.54-9,12.57-9.89l1-1.28,2.78,1.21-2.59-.62-.66.61a6.1,6.1,0,0,1,1.14,0c.69,2.29,1.73,2.24,2.32,4.2l-6.9-1.48c7.13,12.08-3.86,14.8-11.19,20,4.5-.14,8.15-2.06,11.95-2.31,7.56-.49.05-7.57,5-8.86a7.47,7.47,0,0,1,2.43,2.25l.9-.69.31-3.37.55,3.51-1.55.93c1.14,2.4-1,4.62-2.38,6.9l1.8-.44-1.16.88-.94.08a4.36,4.36,0,0,0-.58,3.27c0,5.37-12.63,12.12-12.63,12.12s-8.86,11.36-5.39,8.81c3.7-2.72,10.78-3,10.63-6.38s3.39,1.57,2.3,3.69-8.87,3.73-9.55,4.29,4.45.19,5.18,2l3.3-2.37,12.22-2-11.62,3.62-3.91,1.79a3.44,3.44,0,0,1-.31.65c-2.28,3.69,9.64,2.75,7.31,3.83s-15.1-.61-17.54-.61,10.37,6.21,2.65,5.73,5.85,3,5.08,6.87,3.63,8.67-.4,5.62-9.53-2.91-9.53-2.91c-8.06,1.72-4.61,1.11-9.16,1.57v1.46l-7.77-2,5-3.53-14-7c3.05-1.93,28.39,10.77,26.84,6.94s-9.85-15.69.1-16.46-6.32-3.06-.41-7.67c3.62-2.81-3.09-1.86-9-2.35L413,147.3l-11.08-1.54h11.36l5.84-1.09c-3.1-.43-5.67-1.43-5.91-3.85l6.56.52.72-1.82-9.09-5.81,6.31-2.57c-6.71-6.46-14.8-3.71-20.55-8.45h-.21c-.89,0-.84.07-1.7.07a16.19,16.19,0,0,1-4.75-.48c-2.07-.64-4.2-2.29-3.83-2.86s4.17,0,8.39,1c-.27-.37-.53-.75-.78-1.17,7.05-5.54,22.57,4,20.25,2.52a40.31,40.31,0,0,0-10.08-9.36c-3.83-2.51-7.27-2.89-9.57-2.53s-6.09,1.52-8.88.11c-5-2.55,0,0,.62-6.06a2.36,2.36,0,0,1,1.87-2,12.14,12.14,0,0,0-4,.62,17.86,17.86,0,0,0-3.86,2c-3,1.87-4.17,3.27-4.36,3.1s1.46-3.55,4.81-5.42a11.64,11.64,0,0,1,5.75-1.38,12,12,0,0,1,3.71.67c6.38-.49,17.83,3.21,12.92.71-6.57-3.35-8.62-6.75-15.82-4.41-5.47,1.78-8.85.13-10-3.38L376.21,94h1.26a12,12,0,0,1-.06-4.91c2.87,1.14,5.25,4.59,8.93,3.3s3.24-2.8,12.26-.31c-3.27-7-4.66-7.13-7.72-6.45s-6.34-7.36-6.92-11a9.07,9.07,0,0,0-.5-1.92l-.95,0c-.94-.08-4.07-.32-6.1-2.69-.9-1.06-1.47-2.41-1.24-2.59s1.56,1.77,3.93,3.11a11.11,11.11,0,0,0,4,1.3c-.81-1.6-1.84-2.51-2.18-3.8,9.52,5.46,8.64,3.62,13-3-4.75,1-7.95-.93-11.19-1.31l.49.56-1-.61c-2.28-.14-4.63.63-7.58,3.93-5.79-3.51-.31-4.05,3.53-5.86a15.33,15.33,0,0,1-2.65-3.83l-1.29-1.52.93.66c-.61-1.78.07-2.69,4.36.25,8.09,5.54-4.86-7,3.27-4.3s-6-5.12-4.4-7.11,2.43-3.49,6.33-5.25c-4.45-1.95-6.72,1.8-9.61-3.34s2.74-2.57,5.25-3.42c-3.1-2.41-6-3.95-7.79-6.18-5.81-7.12-6.68-7.21-11.64.15l5.94,2c-11.44,2.78-10.7,6.11-8.61,9.13l.48-.13,3.21-.9,2.57,1.42-2.55-.9-3.55.73c2.08,2.9,5.16,5.5-.48,7-11.64,3.17-18.88,15.15-13.68,11.42s14.44-7,18.12-2.37-1.2,4.1-6,3.27c-1.2-.2,1.5,2.42,3.44,4.84a14.14,14.14,0,0,1,2.25-.77c2.51-.65,5.27-.61,5.36-.17s-1.77,1.09-3,1.45a23.43,23.43,0,0,1-3.78.58c1.48,2.11,1.72,3.67-2.91,2.32-5.55-1.62-19.62,7.8-5.83,5.72S336.67,83,334.15,84.2c6.05.75,11.44-1.06,16.58-.61a11.25,11.25,0,0,0,3.47-.11c-4.09,3.54-8.71,7.24-9.57,8.19-1.78,2,5.12-.12.24,6.78s-19.82,7.69-15,9.78,16.15-1.73,19-.08l.09,0c1.31-1.2,4.64-3.46,8.39-3,1.9.23,3.68,1.12,3.62,1.35s-2-.37-4.45-.31a14.87,14.87,0,0,0-7.22,2.18c3.23,1.79,11.77,5.81,11.15,9.75-1.08-.54-1.87-.91-2.57-1.25-2.41,2.13-22.68,4.51-22.73,4.3s1.65-.29,4.7-1.15a37.79,37.79,0,0,0,6.57-2.37c.89-.44.81-.47,1.67-.87a16.18,16.18,0,0,1,4.94-1.68,8.64,8.64,0,0,1,1.44,0l-1.15-.66c-3.39-2-7.71,4.61-11.2,2.9s-15.65-3-21.38,4.84c6.1-1.7,8.54,10.25,16.54,5.27s18.28-2.76,13.16.37c-2.63,1.61-34.09,7.92-24.12,10.91s9.83,7.59,5.29,6.62a17.45,17.45,0,0,0-6.85.54l.3,2.46h5.05l8.6-6.08,15.83-1.59-16.06,2.71-7.38,5.83H324l.76-3.32c-3.55.77-7.46,1.86-11,1.67,1.71,5,8.73,5.19,8.73,5.19s7,1.31,6,6-17.44-6.4-20.82-4,7,5.26,3.21,11.36c-.05.09-.09.18-.14.26-3.71-.56-7.86,0-11.29-.55l-1.48.37-.57-.85a6.85,6.85,0,0,1-3.09-2c-.79-.91-1.64-2.18-2.54-3.27l-4.4-1.74a4.91,4.91,0,0,0-1.25,1.45,11.42,11.42,0,0,1-3.79,2.71l7.35,2.61-8.12-2-1.83,3.66.79-3.52c-.22.08-.43.15-.65.21.24-3.06-4-7.85-.6-8.89s12,.45,22.37,5.85c.36-.62-.32-2.24-3.2-5.45-.15-.16-.31-.31-.46-.46l-1,.2.79-.36c-2.7-2.34-5.6-1-10.23-3,6.56-2.37,13.9-5.38,12.33-7.51a20.49,20.49,0,0,1-6.92-.62c-1.82-.61-4.85-.93-6.81-3.3-2.89-3.5-8.53-7-.78-11.55,2.27.67,1.84,2.47,1.46,4.3l1,.14.78,1.07-1.84-.82c-.4,2-.52,3.95,3.3,4.32s6.55-2.1,11-1.81c-7.12-5.42-15.49-.86-7.87-12.7-2.92.53-5.07-6.64-7.42-6.21.67-2,8.55,1.15,12.11,3.1s-3.73-8.54-9.9-9.23c-3.44-.39,1.63-2.54,4.13-5.6l-2.21-.36h2.49c1.71-2.37,1.72-5.22-4.79-8.21l4.62-.62c-2.31-6-3-6-8.36-1.7-1.7,1.36-4,2.09-6.68,3.4l4.13,2.38-8.43,1.9,6.39,4.59-14.2,7.34c5.47,7.23,11.48.18,18.93-.11l-5.58,3.4c2.46,1.83,5.4,3.85.62,5.59-3.91-6.95-11.28-2-17-4.48,2,5.41,2,5.41,9.83,2.77-.66,1.27-1.34,2.55-2.28,4.34l.3-.1,3.75,1.36-4.69-.56c-2.23,2.18-4.38,5-7.35,6.33-4.12,1.85-9.83-2.15-13.39,2.44,4.49,2,6.6,4.08,14.61,4.24a20.29,20.29,0,0,0,4.47-.62l-1.56-.42,2.43.23c.57-.13,1.13-.25,1.66-.35,0,.13,0,.24,0,.36h1.57l2.93-.95-2.2,1.3-2.34.13c-.49,4.08-2.47,2.44-8.07,2.68-4.27.19-6.48-.61-8.48,1.05a7,7,0,0,0-2.57,4.39c3.06-4.16,5.5-1.46,10.33-.35l.31.05,0,0a16.17,16.17,0,0,0,6.66,0c-4,1.64-3.83,4.11-7.9,5.26-2.25.63-5-.07-7.5-.17-2.76-.11-5.42-1.82-8.27-.32s3.51,1.14,6.48,2.71a30.06,30.06,0,0,1,5,3.33s0,.79-2,1.29l3.55,0L268,156.8l-11,3.14-7.15-1.14c-1.27,0-2.81-.07-4.69-.25-9.35-.93-1.83,3.57,0,6.14l2.54-.3,8.14,2.93,6.5-1.47-6.16,2.47-7.86-2.75-2.78,0h0c.13,2.25-8.5-1.18-9.79.77s-2.42,1.77-3.76,3.76,6.42-2.15,8.8-.46c1.28.91-2.25,2.55-6.74,3.58l.9-.11,9.55-.47-9.39,2-4-.9a20.37,20.37,0,0,1-8.19-.11c2.46,5.18,2.12,10.79,10.43,10.14,1.43-.12,3.17,2.85,5,4.66-3.5,1-12.71-5.35-16.85-4.2.8.86,7.18,9.08,8.54,10.55l-12.48.75c-.07.69-.13,1.39-.2,2.09l12.74,2.4c.15.29.3.58.44.87-3.4.69-6.77,1.73-10.21,2s-7.16-.28-10.85.92l6.88,5c4.34.82,9.2,1.94,14.13,2.55a8,8,0,0,0,5.09-1.52c2.55-1.94,4.66-4.34,7.9-7.46,1.15,3.27,2,5.53,3.19,9l-6-2.44c.18.56.35,1.12.52,1.68-11.27,3.53-23.51,3.72-35.17,5.92l-.27,1.53,17.86,4.69-8,1.41c0,.58-.08,1.17-.13,1.75l14.44,2.08c-.42.69-2.12,2.3-1.73,3.1.82,1.67,2.75,2.91,4.79,4.89l-9.87.81c.25,2.74.46,5,.68,7.28,0,.17.2.34.3.51-7.25-1.35-5.32,8.56-13.06,8l4-5.25-5-.17,2.74-5.47-7.55-1.42c-.14.34-.29.68-.44,1l3.9,2.36-14.9,2.92,9.6,5c-1.1,1.09-4.54,2.84.52,3.93l-7.69,2.7.66,2,5.81-.05,2.51,6.21,8.11,3.07L212,271.61c1.18,1.58,2.36,3.15,3.62,4.85L201.74,278c3.85,2.72,6.85,3.94,12,1.95,8.42-3.26,17.83-4.47,26.83-6.54l.88,1.61c-2.89,1.42-5.7,3.86-8.7,4.06-11.72.79-13.56,2.85-8.67,11.3-5.52-1.26-6.17-2.07-6.31-8.22-4.6.57-9.19,1-13.73,1.74-4,.62-4,.73-1,4.54l-11.95-2.26,5.46,10.59-10.59-1.16c-.53,1.39-1.18,3.09-1.83,4.76l9.53,4.67c-.14.45-.28.91-.43,1.36l5.09-1.42,10.37,5.34.93,1.76-4.45,1.05,3.6,1.23-10.38,7.84.29.8,23.13-5.4c-2.18,11.82-10.89,7.39-17.22,8,4.2,5.53,7.38,6,14,3.24,2.12-.88,5.25.2,9.22.47L220.91,338l4-1c-2.56,10.78-4.92,21.55-7.69,32.23-8.62,33.34-17.92,71-27.36,104.19l21.45,4q5.09-29.34,10.9-58.57c4.59-23.31,9.49-46.58,14.26-69.86.23-1.13.53-2.25,1.09-4.63,3.46,6,6.33,10.89,9.19,15.83l1.31,0c-.36-2.13-.29-4.42-1.17-6.36-1.54-3.37-3.68-6.52-6-10.59L252,343c-3.91-2.2-8.1-3.52-10.3-6.16-1.42-1.7.07-5.34.33-9.24l11.06,8.06c2.33-6.46-4.19-10.29-8-16.76l6.69,3.33-3.14-6.85,5,.23,3.2,7.27,1.79-.06c.15-2.28.3-4.56.52-7.86l20.14,7.14c0-1.07,0-1.89-.05-2.87l9.74,4,1.18-1.56-11.81-8.3-1,1.07c-.11-1.53-.22-3.05-.37-5.08l5.15.63,1.09-1.49-26.08-18,1.16-1.13,3.41.81,1-1-6.61-6.49.77-1.23L268,287c1.2,7.22,12.84,13.74,21.88,11.42l-14.57-10.18.74-.87L289.38,294,291,292.5l-3.62-2,.85-.34,14.7,3.39-9.15-6.19,11.13-.44,1,.66-5.44,1.81,1.71,2.33L322,286.32l.72,1.35-22.55,9.86c11.26,5.35,28.77-.4,32.64-9.68l16.38-4.62.63,1.82L339,292l1.05,1.57,4.79-.22c.4.59.79,1.19,1.18,1.78l-40.28,17.34c.33.75.66,1.5,1,2.25l7,.46-2.09,6.65-.93-1.66-18.3,8.06,1.08,2.37,14.18-2.82c-.33,1.3-.61,2.38-1,3.79l29-4.42c-.75,4.43-1.26,7.49-1.78,10.55l2.35.53,6.53-8.84,6.76.94-6.33,8.32,9.94-2.75c-7.14,7.63-17,11.08-16,20.24l17.22-7.93c-.88,5.24-.05,10.44-2.47,12.35-3.75,2.95-9.72,3.65-15.61,5.59l14.85,3c-4.42,4.81-8.24,8.46-11.35,12.55-1.79,2.35-2.41,5.41-3.56,8.15l1.73.36,17.18-18.71c0,3.3,0,4.86,0,6.42-1,32.1-1.12,44.67-2.36,76.76-1,15.94-4,30.9-4.7,39.92h29.76c-2.09-46.38-2.56-38.63-3.51-85.06-.3-14.87-.05-29.75-.05-44.7l4.93,2.35-6.34-13.18c5.35.63,9.85,0,12.38,1.69,7.88,5.27,12.24,5.48,19.56-.81-8.21-2.41-21.16,1.29-20.33-14.95l29,13,.63-1-11.31-13,5.17-.72-5.58-2.52,1.79-2.11,15.45-4.48L426,332.3c-.05-.64-.09-1.28-.14-1.92L440,326.57c-.33-2.38-.66-4.79-.93-6.77l-14.43-1.12L435.2,306H418.63c5.16-4.31,5.23-4.45.07-6.28-5.82-2.06-11.76-3.84-17.69-5.76-2.12,8.13-3.24,9.05-11,9.34,9.15-10,7.36-13.19-7.95-17.17-3.92-1-6.88-5-10.28-7.57l1.69-1.92c11.28,5,23.4,9,33.55,15.41,6.19,3.92,10.56,3.05,16.53.4l-18-5.53,6.33-5.52c-.38-1.07-.76-2.13-1.15-3.2l11.73-2.05,5.29-7.61,7.7,1.52c.49-.81,1-1.62,1.48-2.44l-9.35-5.51c7.06-.18,3-3.36,1.94-5.09l8.52-2.54L436.84,256l-4.25,5.49,1.05.73,8.36-6.4,1.73,1.28-5.68,7.26,14,.68-24.37,15.27,14.83-2.92.84.37-3.7,1.93,1.58,1.5L454.79,275l.71.9-15,9.71c8.93,2.61,20.84-3.54,22.33-10.72l11.24-5.2c.23.42.47.84.71,1.25L468,277.24l1,1,3.44-.71,1.12,1.17-26.79,17.13,1,1.52,5.17-.46c-.23,2-.41,3.54-.58,5.06l-.91-1.09-12.14,7.91c.37.53.74,1.07,1.12,1.6l9.9-3.65c-.06,1-.11,1.8-.17,2.87l20.41-6.49c.09,3.31.15,5.59.21,7.87l1.78.12L476,304l5-.08-3.42,6.76,6.83-3.12c-4.1,6.35-10.78,10-8.71,16.49l11.38-7.7c.1,3.91,1.45,7.59,0,9.24-2.3,2.57-6.54,3.75-10.54,5.83l11.21.53c-2.52,4-4.78,7.07-6.46,10.39-1,1.91-1,4.2-1.42,6.32l1.3.07L491,333.16c.47,2.4.72,3.53.91,4.66,3.83,23.43,7.78,46.83,11.43,70.28q4.59,29.4,8.53,58.88l21.61-3.36c-8.1-33.44-15.88-71.4-23.15-105C508,347.86,506.08,337,504,326.17l3.91,1.15-6.48-8.85c4-.15,7.15-1.12,9.23-.18,6.47,2.95,9.66,2.61,14.09-2.79-6.3-.82-15.18,3.33-16.88-8.56l22.89,6.14c.11-.26.21-.52.32-.79L521,304.13l3.65-1.11-4.4-1.2,1-1.73ZM445.74,95l-1.93.86,2.47-1.72h1.4Zm3.15,3.86-.4-.76,2,.16.28.36Zm-24.83,52.7,6.38,3-6.38-.75-9-1.79ZM378,40.68h-2.88l-.9-2.83ZM363.09,24.94l2.07,1.55.29,1.55ZM285.76,148.36l2-1.17,4.72-.44ZM284.07,139l1.29,2.27,2.42.76-3.71-.57Zm4.42-28,2.27,1.42-3-1Zm-13.93,1-5.05-.61,6.47-.61Zm11.51,6.67-.23,4.27-1.18,1Zm-4.23-16.79L287,98.79l-2,1.81Zm-13.07,67.47,2-2.59v2.71Zm3-27.3.2,3.4-1.48-.18Zm-7.8,10.07H257l8.26-1.1h4.53Zm70.9-16.49s1.42-.29,4.06-1a53.52,53.52,0,0,0,5.7-1.79c.77-.31.71-.31,1.46-.6a23,23,0,0,1,4.28-1.29c2-.33,4.45-.14,4.34.28C354.35,132.39,334.87,135.73,334.83,135.62Zm19.84-11-5.23-.39,7.89-1.56ZM487.2,169.74l-7.84-7.59-2.82,2.22,2.13-3.84,9,8,6.42-2Zm17.94-4.32-2,2.16-3.87.56Zm-2.78-6.52h-4l1-.57-4.22-2.14-9.31-5ZM481,154.42l6.24,2.69-5.56-1.35-6-.69ZM478.67,142l10.14,2-9.45-.57-6.42,1.41ZM378,139.6l3.17-4,5.44,2.84-4.49-1.41Zm87.56-19.21,2.46,2.94,3.83.37-3.86.51-2.61-3.16-1.25-.66Zm-.89,30.84,1,5.24-1.57-2.05Zm-5.31-51-1-.12-1-4Zm-5.75-11.11,2.86.43.89,1.09Zm2.95,42.35,2.2,1.17h-2.35l-4.19-1.17ZM444.29,142l5.75-4,2.78-.81,5.35.81h-4.85l-5.1,2Zm7.93,2.81,6.14-1.41,3.86,1.41-4.26-.44Zm3.89,12.3-.65,1.43,7.23,1.43-9.07-1.36ZM448.88,166l8.34-.83,8.64,1.65-9.13-1.12-6.69,1-2.44,1.5ZM393.55,131.3c2.47,1.41,2.42,2.06,4.87,3.42,5.81,3.21,11.34,2.45,11.78,3,.31.4-2,1-5.31.55a29.49,29.49,0,0,1-8.28-2.79c-3.86-1.86-4.1-2.7-7.65-4.37-4.82-2.27-8-2.4-8.13-2.69S387.5,127.86,393.55,131.3Zm-10.32-18.51-7,3.16h-2ZM382.11,84.1l1.12.78-.84.8-3.28-1.58Zm-4.64-5.52-2.55.51-2.55-1.48Zm-5.85,40.57.75,1.22-.75,1.21ZM366.52,70v1l-5.11,1.62ZM353.15,81.69V80.14l2.79-1.56Zm-3.21,9.07c0-.05.88-.44,2.39-1.55a14.77,14.77,0,0,0,3.11-2.89c.39-.5.33-.52.71-1a6.08,6.08,0,0,1,2.37-2.07c1.3-.47,3.22,0,3.41.8C362.43,86.18,350,91,349.94,90.76Zm14.57,2.35V94l-3.1.88Zm1.17,42.52H363l2.72-2.53Zm1-23.86-1-1.43,1-1.43Zm-1-28.68.84-.75,1.21.75ZM364,50.27l-3,1.38,2.51-2.76,4.24,1.38ZM485.82,182l-8.65-1.74-4.23-4,5,3.24,9.56,2,4.67,3.12,8.8-1.07-8.52,1.93Z"/><path class="cls-4" d="M466.21,109.75c-.18-.38-.37-.76-.54-1.13,7.69,2.89,7.69,2.89,9.93-2.45-5.35,2.11-9.1-3.14-12.94,1.39l1.91,1.73Z"/><path class="cls-4" d="M204.89,313.19l.24-.06-.34-.11Z"/><path class="cls-4" d="M212,271.62h0l-.1-.14Z"/><path class="cls-4" d="M397.14,122.69a38.26,38.26,0,0,1,6.16.52c2.88.43,4.36.84,4.37.79s-6.76-2.17-12.63-3.57A12.4,12.4,0,0,0,397.14,122.69Z"/><path class="cls-4" d="M358.13,116.54c.09-.64-1.72-1.31-3.65-1.43,1.47.83,2.35,1.28,3.41,1.79A.69.69,0,0,0,358.13,116.54Z"/><path class="cls-4" d="M355.42,66.34a18.45,18.45,0,0,1,4.94-1.92l.25,0c-.25-.35-.53-.72-.83-1.09C357,64.49,355.33,66.18,355.42,66.34Z"/><path class="cls-4" d="M391.45,102.14c0-.11-.35-.32-.95-.54a8.33,8.33,0,0,0-2,.38C390.23,102,391.42,102.32,391.45,102.14Z"/><path class="cls-4" d="M348.37,108.9c0,.06.36-.16.94-.5l-.34-.2C348.56,108.58,348.34,108.85,348.37,108.9Z"/><path class="cls-4" d="M386.75,72c0-.23-1.58,0-3.68-.25a8.39,8.39,0,0,1,.39.9C385.28,72.67,386.76,72.26,386.75,72Z"/><path class="cls-4" d="M379.79,95.34,378.31,94h-.84a4.61,4.61,0,0,0,.15.53Z"/><path class="cls-4" d="M269.61,125.09l-1.64.58,1,.12c.19-.18.37-.37.56-.54Z"/><path class="cls-4" d="M285.36,132.39l1.36.6c0-.13,0-.26.08-.39Z"/><path class="cls-4" d="M268.22,138h0l-.87.19,1.37.37,1.09-.06c0-.15,0-.33,0-.49Z"/><path class="cls-4" d="M258.27,145.76l5.87,2-2.82-1.43-.34-.07Z"/><polygon class="cls-4" points="278.87 115.03 275.14 117.18 271.2 117.92 275.56 117.76 278.87 115.03"/><polygon class="cls-4" points="292.65 88.54 292.5 89.21 291.74 93.31 292.65 90.5 292.65 88.54"/><path class="cls-4" d="M293.85,105.15l-1.19-.65h-.27l-.28.36Z"/><path class="cls-4" d="M448.22,105.44l1.35-1.23a3.58,3.58,0,0,0-.49.08Z"/><path class="cls-4" d="M462.22,107.16l.36.49.08-.09Z"/><path class="cls-4" d="M469.49,110.69l-3.28-.94.34.72Z"/><path class="cls-4" d="M451.13,120.44l3.43-2.08a3.59,3.59,0,0,0-.21-.38Z"/><path class="cls-4" d="M448.88,126.06l3-.28.3-.52Z"/><path class="cls-4" d="M467.9,135.19l.47.22,0-.68-.5.19Z"/><path class="cls-4" d="M444.49,85.68l2.09.9.4-.36Z"/><path class="cls-4" d="M452,78.91,450,78l.47.39a6.7,6.7,0,0,1,1.55.88Z"/><path class="cls-4" d="M424.06,143.74l-5,.93c.51.07,1,.13,1.54.17Z"/><path class="cls-4" d="M441.84,153.6l-4,2.87,4-1.83A1.43,1.43,0,0,0,441.84,153.6Z"/><path class="cls-4" d="M499,176.32l3.4-1.54H499l-.19.05-1.35,1.49Z"/><path class="cls-4" d="M324.75,145.72l0,.19h.06Z"/><path class="cls-4" d="M297.93,154.48l8.81-1.76,16,2-17.27-3.92-7.76,3.56Z"/><path class="cls-4" d="M378.54,61.39l3.67,2.19.53.05-2.95-3.38L375.15,57c.1.27.22.56.36.86Z"/><path class="cls-4" d="M357.9,39l-.64-.22.34.52.81-.17c-.05-.07-.1-.15-.16-.22Z"/><polygon class="cls-4" points="372.07 19.48 369.62 18.25 373.6 21.99 372.07 19.48"/><path class="cls-4" d="M253.82,158.4l-6.08.06,2.13.34A16.26,16.26,0,0,0,253.82,158.4Z"/><path class="cls-4" d="M291.72,160l2.88,1.15,2.75,4.13a12.8,12.8,0,0,0,2,.48l6.61-1.66-6.43.78-5.09-5-4-1.21A11.29,11.29,0,0,1,291.72,160Z"/><path class="cls-4" d="M282,156.21l5.28,2.09a2.24,2.24,0,0,1,.6-.33Z"/><path class="cls-4" d="M238.91,165.45l6.67.08a1.9,1.9,0,0,0-.38-.84Z"/><path class="cls-4" d="M280.76,161.92l-.29,1.3a14,14,0,0,0,1.81-.76Z"/><path class="cls-4" d="M230.55,173.62l.59.13c1-.15,2-.34,3-.56Z"/><path class="cls-2" d="M42.11,361.11c0,33.34,150.47,16.05,150.47,49.38V343.82c0-33.33-151.45-25.64-151.45-59l1,76.26"/><path class="cls-5" d="M212.13,208.13h13.56l142.44-66.77,142.45,66.77H666.83s1.37,13.87-7,19.25A19.59,19.59,0,0,0,651.08,242l-.14,239.35.14,5A19.59,19.59,0,0,0,659.83,501c8.37,5.38,7,19.25,7,19.25H69.44s-1.37-13.87,7-19.25a19.59,19.59,0,0,0,8.75-14.62L85.28,242a19.63,19.63,0,0,0-8.75-14.62c-8.38-5.38-7-19.25-7-19.25H225.77l142.45-66.77,142.44,66.77h13.56"/><path class="cls-6" d="M41.14,285.54c38.36-47.6,98.48-74.89,142.24-89.41a496.75,496.75,0,0,1,83.25-19.87l-16.55,28.6,28.55,19.51a419,419,0,0,0-83.08,22.75C151.19,264.18,89.05,296.73,42,355.42Z"/><path d="M262.82,178.85l-13.54,23.4-1.86,3.21,3.06,2.09,22.87,15.64a423.57,423.57,0,0,0-78.52,22.06,404.14,404.14,0,0,0-80.37,41.44A332.44,332.44,0,0,0,44,349.89l-.81-63.65c16.65-20.5,38.72-38.91,65.64-54.74,22-12.95,47.3-24.2,75.14-33.45a501.33,501.33,0,0,1,78.89-19.2m7.58-5.1S114,191.25,39.13,284.85l1,76.26C131.32,242.74,284,225.64,284,225.64l-31.28-21.39,17.66-30.5Z"/><text class="cls-7" transform="translate(63.21 312.03) rotate(-39.65) scale(1.07 1)">T</text><text class="cls-7" transform="matrix(0.86, -0.63, 0.59, 0.81, 85.48, 293.83)">h</text><text class="cls-7" transform="matrix(0.89, -0.59, 0.55, 0.83, 99.07, 283.99)">e</text><text class="cls-7" transform="translate(111.64 275.7) rotate(-31.72) scale(1.07 1)"> </text><text class="cls-7" transform="translate(120.04 269.89) rotate(-28.1) scale(1.07 1)">H</text><text class="cls-7" transform="translate(158.17 250.09) rotate(-24.8) scale(1.07 1)">i</text><text class="cls-7" transform="translate(166.09 246.41) rotate(-23.46) scale(1.07 1)">s</text><text class="cls-7" transform="translate(177.98 241.27) rotate(-22.14) scale(1.07 1)">t</text><text class="cls-7" transform="translate(186.21 237.86) rotate(-20.6) scale(1.07 1)">o</text><text class="cls-7" transform="matrix(1.01, -0.34, 0.32, 0.95, 202.46, 231.78)">r</text><text class="cls-7" transform="translate(215.49 227.36) rotate(-17.58) scale(1.07 1)">i</text><text class="cls-7" transform="translate(223.82 224.67) rotate(-16.25) scale(1.07 1)">c</text><path class="cls-6" d="M358.65,540.77c-12.81,0-22.23-.4-27-.66l21.43-29.79-22.5-28.46c3.63.12,9.39.27,16.85.27,32.62,0,97.41-2.67,164.84-20.52,80.68-21.35,140.36-57.52,177.51-107.56l.88,69.42C596.08,529.32,427,540.77,358.65,540.77Z"/><path d="M687.82,359.86l.81,62.86c-94.12,104.71-262,116-330,116-10,0-18-.25-23.26-.48l18.4-25.58,1.76-2.45-1.87-2.37L334.78,484c3.34.08,7.58.15,12.62.15,32.72,0,97.71-2.68,165.35-20.58,37.82-10,71.54-23.51,100.24-40.13,30.41-17.62,55.53-39,74.83-63.56m3.85-11.9C606.44,469.66,411.81,480.13,347.4,480.13c-13.37,0-21.13-.46-21.13-.46l24.27,30.7-22.66,31.51s11.5.89,30.77.89c69.33,0,239.08-11.63,334-118.55l-1-76.26Z"/><text class="cls-8" transform="translate(367.13 527.02) rotate(-2.99) scale(0.94 1)">R</text><text class="cls-8" transform="translate(403.84 524.9) rotate(-5.1) scale(0.94 1)">e</text><text class="cls-8" transform="translate(419.06 523.53) rotate(-6.28) scale(0.94 1)">s</text><text class="cls-8" transform="translate(432.61 522.02) rotate(-7.24) scale(0.94 1)">t</text><text class="cls-8" transform="matrix(0.93, -0.14, 0.15, 0.99, 442.22, 520.85)">a</text><text class="cls-8" transform="translate(461.68 517.92) rotate(-10.2) scale(0.94 1)">u</text><text class="cls-8" transform="translate(479.65 514.66) rotate(-11.75) scale(0.94 1)">r</text><text class="cls-8" transform="matrix(0.92, -0.22, 0.23, 0.97, 494.04, 511.7)">a</text><text class="cls-8" transform="translate(513.25 507.07) rotate(-15.5) scale(0.94 1)">n</text><text class="cls-8" transform="translate(530.47 502.24) rotate(-17.18) scale(0.94 1)">t</text><text class="cls-8" transform="matrix(0.89, -0.3, 0.32, 0.95, 541.11, 498.95)"> </text><text class="cls-8" transform="translate(552.24 495.4) rotate(-21.16) scale(0.94 1)">&amp;</text><text class="cls-8" transform="matrix(0.86, -0.38, 0.41, 0.91, 578.78, 484.89)"> </text><text class="cls-8" transform="matrix(0.84, -0.43, 0.45, 0.89, 589.6, 480.25)">S</text><text class="cls-8" transform="translate(613.07 468.12) rotate(-31.08) scale(0.94 1)">a</text><text class="cls-8" transform="translate(630.17 457.65) rotate(-33.94) scale(0.94 1)">l</text><text class="cls-8" transform="matrix(0.75, -0.57, 0.6, 0.8, 638.58, 452.09)">o</text><text class="cls-8" transform="matrix(0.71, -0.62, 0.66, 0.75, 653.92, 440.53)">o</text><text class="cls-8" transform="matrix(0.66, -0.67, 0.72, 0.7, 668.52, 427.77)">n</text><path class="cls-9" d="M138.68,366.28c-22.34,0-36.78-15.43-36.78-39.32a38.71,38.71,0,0,1,10.95-27.35c6.57-6.69,15.27-10.53,23.85-10.53,5.44,0,9.71,1.4,14.34,3.09l.74.31a8.47,8.47,0,0,0,3.3.89,3.54,3.54,0,0,0,2.91-1.78l.06-.09.06-.08a2,2,0,0,0,.3-.73l.32-1.61h8.37v27.67h-7.77L159,315.2a20.38,20.38,0,0,0-20-15.74c-7.27,0-19.57,5.54-19.57,26.29,0,13.7,3.78,30,21.77,30,7.46,0,13.53-5.18,13.53-11.54v-4.52c0-2.1-3-2.84-6.67-3.52l-2.91-.53v-7.63h33.61v8.84h-4.09c-3.12,0-3.62.31-3.62,4.49v23.69h-8.14l-2.76-7.68C154.89,363.44,148,366.28,138.68,366.28Z"/><path d="M165.1,291.08v23.67h-4.18A22.27,22.27,0,0,0,139,297.46c-15.63,0-21.57,15.63-21.57,28.29,0,18.28,6.6,32,23.77,32,8.81,0,15.52-6.28,15.52-13.54v-4.52c0-4-4.84-4.84-8.36-5.5l-1.21-.22v-4h29.61v4.84h-2.09c-4.63,0-5.62,1.65-5.62,6.49v21.69h-4.73l-3.52-9.8c-5.4,7.93-12.66,11-22.13,11-19.7,0-34.78-13.1-34.78-37.32,0-21.35,16.73-35.88,32.8-35.88,5.06,0,9.14,1.32,13.65,3a12.21,12.21,0,0,0,4.73,1.32,5.51,5.51,0,0,0,4.63-2.75,3.86,3.86,0,0,0,.66-1.54h4.73m4-4h-12l-.64,3.22h0l-.06.08-.1.17a1.56,1.56,0,0,1-1.2.81,6.82,6.82,0,0,1-2.53-.74l-.71-.29-.06,0-.06,0c-4.63-1.7-9.26-3.22-15-3.22-9.12,0-18.33,4.06-25.28,11.13A40.67,40.67,0,0,0,99.9,327c0,12.61,3.86,23.18,11.16,30.56,7,7,16.51,10.76,27.62,10.76,8.51,0,15.33-2.37,20.67-7.23l1.22,3.37,1,2.65h11.54V341.38a12,12,0,0,1,.17-2.39,8.87,8.87,0,0,1,1.45-.1h6.09V326.05H143.16v11.3l3.28.59,1.21.22h0c1.21.23,4.37.82,5,1.54v4.54c0,5.26-5.16,9.54-11.52,9.54-6.79,0-11.7-2.42-15-7.38-3.13-4.71-4.78-11.86-4.78-20.66,0-9,3.7-24.29,17.57-24.29a18.15,18.15,0,0,1,18,14.2l.73,3.09H169.1V287.08Z"/><path class="cls-9" d="M213.21,366.17c-25.55,0-28.31-18.87-28.31-27V306.27c0-3.17-1.47-5.76-3.75-6.6l-5.83-2.13v-7.25h34.16v9.28h-3.54c-3.48,0-4.71.83-4.71,5.49V343.7c0,6.44,5.52,10.77,13.74,10.77,9.87,0,14.29-6.3,14.29-12.54V305.06c0-4.66-1.24-5.49-4.72-5.49H221v-9.28h28.22v9.28h-3.54c-3.48,0-4.72.83-4.72,5.49v34.56C241,356.25,230.59,366.17,213.21,366.17Z"/><path d="M247.22,292.29v5.28h-1.54c-4.73,0-6.72,1.88-6.72,7.49v34.56c0,12.33-6.27,24.55-25.75,24.55-19.16,0-26.31-11.34-26.31-25V306.27c0-3.74-1.76-7.26-5.07-8.48l-4.51-1.65v-3.85h30.16v5.28h-1.54c-4.73,0-6.71,1.88-6.71,7.49V343.7c0,7.26,6.05,12.76,15.74,12.76,11.12,0,16.29-7.26,16.29-14.53V305.06c0-5.61-2-7.49-6.72-7.49H223v-5.28h24.22m4-4H219v13.28h5.54a4,4,0,0,1,2.21.36s.51.58.51,3.13v36.87c0,4.86-3.22,10.53-12.29,10.53-7,0-11.74-3.52-11.74-8.76V305.06c0-2.55.49-3.1.51-3.13a4,4,0,0,1,2.2-.36h5.54V288.29H173.32v10.65l2.63,1,4.51,1.65c1.68.62,2.44,2.82,2.44,4.72v32.91c0,8.31,2.43,15.33,7,20.33,5.29,5.75,13.13,8.66,23.28,8.66s18-3,23.2-9c4.29-4.93,6.55-11.68,6.55-19.53V305.06c0-2.55.5-3.1.52-3.13a4,4,0,0,1,2.2-.36h5.54V288.29Z"/><path class="cls-9" d="M290,365.07v-9.39h6.73a2.48,2.48,0,0,0,1.39-.24s0-.1,0-.3a7.45,7.45,0,0,0-.45-2.12l-2.93-8.31H266.8l-3,7.85a4.62,4.62,0,0,0-.31,1.59c0,1,.92,1.53,2.74,1.53h6.73v9.39H244.27v-9.39h4.43c1.83,0,2.21-.57,3.36-3.44l24.44-61.95h16.2l22,60.71c1.21,3.25,1.95,4.68,4,4.68h4.87v9.39Zm1.6-29.65-10-28.84-11.09,28.84Z"/><path d="M291.3,292.29l21.46,59.22c1.1,3,2.2,6.17,5.94,6.17h2.87v5.39H292v-5.39h4.73c2.53,0,3.41-1,3.41-2.54a9.35,9.35,0,0,0-.55-2.75l-3.41-9.68H265.43l-3.52,9.13a6.33,6.33,0,0,0-.45,2.31c0,2.31,1.88,3.53,4.74,3.53h4.73v5.39H246.27v-5.39h2.43c3.41,0,4.18-2.1,5.28-4.85l23.89-60.54H291.3m-23.78,45.13h26.86l-12.77-36.65-14.09,36.65m26.58-49.13h-19l-1,2.53-23.89,60.54-.06.14a11.47,11.47,0,0,1-1,2.13,2,2,0,0,1-.51.05h-6.43v13.39h32.66V353.68H266.2a4,4,0,0,1-.67-.05,3.3,3.3,0,0,1,.12-.38l2.52-6.54h25.14l2.45,7H288v13.39h37.61V353.68H318.7c-.59,0-.93-.15-2.12-3.37l-.07-.19-21.45-59.19-1-2.64Zm-20.76,45.13,8.08-21,7.33,21Z"/><path class="cls-9" d="M329.69,365.07v-9.28h3.21c4,0,4.94-.52,4.94-5.6V306.27c0-3.17-1.48-5.76-3.76-6.6l-5.82-2.13v-7.25h38.89v9.28h-8.27c-3.48,0-4.71.83-4.71,5.49v45.13c0,5.36,1.6,5.6,4.93,5.6h11.45c9.51,0,14.05-5.57,14.29-17.53l0-2h8.91v28.77Z"/><path d="M365.15,292.29v5.28h-6.27c-4.73,0-6.71,1.88-6.71,7.49v45.13c0,6.49,2.53,7.6,6.93,7.6h11.45c12.22,0,16.07-8.59,16.29-19.49h5v24.77h-60.1v-5.28h1.21c5.18,0,6.94-1.44,6.94-7.6V306.27c0-3.74-1.76-7.26-5.07-8.48l-4.51-1.65v-3.85h34.89m4-4H326.26v10.65l2.63,1,4.51,1.65c1.68.62,2.44,2.82,2.44,4.72v43.92a8,8,0,0,1-.41,3.32,6.79,6.79,0,0,1-2.53.28h-5.21v13.28h68.1V334.3H382.92l-.08,3.92c-.16,7.7-1.74,15.57-12.29,15.57H359.1c-2,0-2.4-.3-2.41-.31s-.52-.62-.52-3.29V305.06c0-2.55.49-3.1.51-3.13a4,4,0,0,1,2.2-.36h10.27V288.29Z"/><path class="cls-9" d="M445.36,365.07v-9.39h6.73c1.1,0,1.39-.24,1.39-.24s0-.1,0-.3a7.73,7.73,0,0,0-.44-2.12l-2.94-8.31H422.2l-3,7.85a4.6,4.6,0,0,0-.3,1.59c0,1,.92,1.53,2.73,1.53h6.73v9.39H399.68v-9.39h4.42c1.83,0,2.22-.57,3.36-3.44l24.45-61.95H448.1l22,60.71c1.2,3.25,1.94,4.68,4,4.68H479v9.39ZM447,335.42l-10.05-28.84-11.09,28.84Z"/><path d="M446.7,292.29l21.46,59.22c1.1,3,2.2,6.17,5.95,6.17H477v5.39H447.36v-5.39h4.73c2.53,0,3.41-1,3.41-2.54a9.35,9.35,0,0,0-.55-2.75l-3.41-9.68H420.83l-3.52,9.13a6.52,6.52,0,0,0-.44,2.31c0,2.31,1.87,3.53,4.73,3.53h4.73v5.39H401.68v-5.39h2.42c3.41,0,4.18-2.1,5.28-4.85l23.89-60.54H446.7m-23.78,45.13h26.86L437,300.77l-14.09,36.65m26.58-49.13H430.55l-1,2.53-23.89,60.54-.05.14a12.17,12.17,0,0,1-1,2.13,2,2,0,0,1-.52.05h-6.42v13.39h32.65V353.68H421.6a4.08,4.08,0,0,1-.67-.05q0-.18.12-.39l2.52-6.53h25.14l2.45,7h-7.8v13.39H481V353.68h-6.86c-.6,0-.94-.15-2.13-3.37l-.07-.19-21.45-59.19-1-2.64Zm-20.76,45.13,8.09-21,7.32,21Z"/><path class="cls-9" d="M485.09,365.07v-9.28h3.21c4,0,4.94-.52,4.94-5.6V306.27c0-3.17-1.48-5.76-3.75-6.6l-5.83-2.13v-7.25h38.9v9.28h-8.28c-3.48,0-4.71.83-4.71,5.49v45.13c0,5.36,1.6,5.6,4.93,5.6H526c9.51,0,14-5.57,14.29-17.53l0-2h8.91v28.77Z"/><path d="M520.56,292.29v5.28h-6.28c-4.73,0-6.71,1.88-6.71,7.49v45.13c0,6.49,2.53,7.6,6.93,7.6H526c12.22,0,16.07-8.59,16.29-19.49h5v24.77h-60.1v-5.28h1.21c5.18,0,6.94-1.44,6.94-7.6V306.27c0-3.74-1.76-7.26-5.07-8.48l-4.51-1.65v-3.85h34.9m4-4h-42.9v10.65l2.63,1,4.51,1.65c1.68.62,2.44,2.82,2.44,4.72v43.92a8,8,0,0,1-.41,3.32,6.79,6.79,0,0,1-2.53.28h-5.21v13.28h68.1V334.3H538.32l-.08,3.92c-.15,7.7-1.74,15.57-12.29,15.57H514.5c-2,0-2.4-.3-2.41-.31s-.52-.62-.52-3.29V305.06c0-2.55.49-3.1.51-3.13a4,4,0,0,1,2.2-.36h10.28V288.29Z"/><path class="cls-9" d="M600.76,365.07v-9.39h6.73c1.1,0,1.39-.24,1.39-.24a1.71,1.71,0,0,0,0-.3,7.73,7.73,0,0,0-.44-2.12l-2.93-8.31H577.6l-3,7.85a4.6,4.6,0,0,0-.3,1.59c0,1,.92,1.53,2.73,1.53h6.73v9.39H555.08v-9.39h4.42c1.83,0,2.22-.57,3.36-3.44l24.45-61.95H603.5l22,60.71c1.2,3.25,1.94,4.68,4,4.68h4.86v9.39Zm1.6-29.65-10-28.84-11.09,28.84Z"/><path d="M602.1,292.29l21.46,59.22c1.1,3,2.2,6.17,6,6.17h2.86v5.39H602.76v-5.39h4.73c2.53,0,3.41-1,3.41-2.54a9.35,9.35,0,0,0-.55-2.75l-3.41-9.68H576.23l-3.52,9.13a6.52,6.52,0,0,0-.44,2.31c0,2.31,1.87,3.53,4.73,3.53h4.73v5.39H557.08v-5.39h2.42c3.41,0,4.18-2.1,5.28-4.85l23.89-60.54H602.1m-23.78,45.13h26.86l-12.77-36.65-14.09,36.65m26.58-49.13H586l-1,2.53-23.89,60.54,0,.14a12.17,12.17,0,0,1-1,2.13,2,2,0,0,1-.52.05h-6.42v13.39h32.65V353.68H577a4.08,4.08,0,0,1-.67-.05q0-.18.12-.39l2.52-6.53h25.14l2.46,7h-7.81v13.39h37.61V353.68h-6.86c-.6,0-.94-.15-2.13-3.37l-.07-.19-21.45-59.19-1-2.64Zm-20.76,45.13,8.09-21,7.32,21Z"/><path class="cls-9" d="M234.22,446.4v-7.84h3.68c2.51,0,3,0,3-3.52V422.48H219V435c0,3.52.95,3.52,3,3.52h4.64v7.84H200.14v-7.84H203c2.51,0,3,0,3-3.52V403.12c0-1.58-.62-3.65-2.37-4.29l-4.59-1.68V391H227v7.84H221.9c-2.14,0-2.88.28-2.88,3.44v12.24h21.92V402.24c0-3.16-.75-3.44-2.88-3.44h-3.12V391h25v7.84h-3.12c-2.14,0-2.88.28-2.88,3.44V435c0,3.52.95,3.52,3,3.52h4.64v7.84Z"/><path d="M257.9,393v3.84h-1.12c-3.44,0-4.88,1.36-4.88,5.44V435c0,4.72,1.92,5.52,5,5.52h2.64v3.84H236.22v-3.84h1.68c3.76,0,5-1,5-5.52V420.48H217V435c0,4.72,1.92,5.52,5,5.52h2.64v3.84H202.14v-3.84H203c3.76,0,5-1,5-5.52V403.12c0-2.72-1.28-5.28-3.68-6.16l-3.28-1.2V393H225v3.84H221.9c-3.44,0-4.88,1.36-4.88,5.44v14.24h25.92V402.24c0-4.08-1.44-5.44-4.88-5.44h-1.12V393h21m4-4h-29V400.8h5.12a6.56,6.56,0,0,1,.77,0,7.14,7.14,0,0,1,.11,1.4v10.24H221V402.24a7.41,7.41,0,0,1,.1-1.4,6.63,6.63,0,0,1,.78,0H229V389H197.1v9.59l2.62,1,3.28,1.2c.61.23,1.06,1.24,1.06,2.41V435a9.4,9.4,0,0,1-.09,1.48c-.21,0-.52,0-.95,0h-4.88V448.4H228.7V436.56h-6.64a6.25,6.25,0,0,1-.92-.05A6.93,6.93,0,0,1,221,435V424.48h17.92V435a9.4,9.4,0,0,1-.09,1.48c-.21,0-.52,0-.95,0h-5.68V448.4h31.36V436.56h-6.64a6.25,6.25,0,0,1-.92-.05,6.93,6.93,0,0,1-.12-1.47v-32.8a6.41,6.41,0,0,1,.11-1.4,6.29,6.29,0,0,1,.77,0h5.12V389Z"/><path class="cls-9" d="M305.73,447.28c-13.45,0-27.76-10-27.76-28.56,0-10.9,4.78-17.6,8.79-21.3a28.2,28.2,0,0,1,37.95,0c4,3.7,8.79,10.4,8.79,21.3s-4.78,17.53-8.79,21.23A28.25,28.25,0,0,1,305.73,447.28ZM304.45,398c-4.32,0-7.64,2-9.89,6a26.62,26.62,0,0,0-2.91,12.67c0,15.44,9.17,22.64,15.36,22.64a10.79,10.79,0,0,0,9.89-6,26.6,26.6,0,0,0,2.91-12.66C319.81,405.19,310.65,398,304.45,398Z"/><path d="M305.73,392.08c12.64,0,25.77,9.28,25.77,26.64s-13.13,26.56-25.77,26.56S280,436,280,418.72s13.12-26.64,25.76-26.64m1.28,49.2c11.28,0,14.8-11.76,14.8-20.64,0-9.52-5.28-24.64-17.36-24.64-11.28,0-14.8,11.76-14.8,20.64,0,9.52,5.28,24.64,17.36,24.64m-1.28-53.2c-14.42,0-29.76,10.73-29.76,30.64,0,11.58,5.13,18.73,9.43,22.7a30.32,30.32,0,0,0,20.33,7.86c14.43,0,29.77-10.71,29.77-30.56,0-11.62-5.13-18.8-9.43-22.77a30.23,30.23,0,0,0-20.34-7.87Zm1.28,49.2c-9.44,0-13.36-13.45-13.36-20.64A24.57,24.57,0,0,1,296.31,405a8.8,8.8,0,0,1,8.14-4.95c9.45,0,13.36,13.44,13.36,20.64a24.53,24.53,0,0,1-2.65,11.68,8.81,8.81,0,0,1-8.15,5Z"/><path class="cls-9" d="M360.13,446.4v-7.84h4.56c2.58,0,3.12,0,3.12-3.52V398.56h-1.28c-6.95,0-8.74,5.23-9.36,13.66l-.14,1.86h-7.14V391h48.8v23.12h-7.13l-.14-1.86c-.63-8.43-2.42-13.66-9.37-13.66h-1.36V435c0,3.52.92,3.52,3.12,3.52h6.64v7.84Z"/><path d="M396.69,393v19.12h-3.28c-.56-7.52-2.08-15.52-11.36-15.52h-3.36V435c0,4.72,1.92,5.52,5.12,5.52h4.64v3.84H362.13v-3.84h2.56c3.84,0,5.12-1,5.12-5.52V396.56h-3.28c-9.28,0-10.8,8-11.36,15.52h-3.28V393h44.8m4-4h-52.8v27.12h11l.28-3.71c.7-9.41,2.81-11.58,6.65-11.8V435a11,11,0,0,1-.08,1.47,8.34,8.34,0,0,1-1,.05h-6.56V448.4h34.32V436.56h-8.64a9.42,9.42,0,0,1-1-.05,7,7,0,0,1-.12-1.47V400.57c4.95.31,6.17,4.28,6.73,11.8l.28,3.71h11V389Z"/><path class="cls-9" d="M418.13,446.4v-7.84H421c2.52,0,3,0,3-3.52V402.32c0-1.58-.62-3.65-2.37-4.29l-4.59-1.68V391h50V411.6h-7.25l-.25-1.72c-1.17-8.18-4-11.08-10.66-11.08h-9c-2.13,0-2.88.28-2.88,3.44v11.68h5.28c.72,0,1.92,0,1.92-3.92v-3.92h8v24.64h-8V426.8c0-3.92-1.2-3.92-1.92-3.92H437V435c0,3.52.83,3.52,3,3.52h9.84c4.43,0,9.54-1.39,9.76-12.2l0-2h7.8v22Z"/><path d="M465.09,393V409.6h-3.52c-1.12-7.84-3.84-12.8-12.64-12.8h-9c-3.44,0-4.88,1.36-4.88,5.44v13.68h7.28c3.36,0,3.92-3.12,3.92-5.92v-1.92h4v20.64h-4V426.8c0-2.8-.56-5.92-3.92-5.92H435V435c0,4.72,1.84,5.52,5,5.52h9.84c8.88,0,11.6-6.24,11.76-14.16h3.84v18H420.13v-3.84H421c3.76,0,5-1,5-5.52V402.32c0-2.72-1.28-5.28-3.68-6.16l-3.28-1.2v-2h46m4-4h-54v8.79l2.63,1,3.28,1.2c.61.23,1.05,1.24,1.05,2.41V435a11.31,11.31,0,0,1-.08,1.48c-.22,0-.53,0-1,0h-4.88V448.4h53.36v-26H457.73l-.08,3.92c-.19,9.45-4.1,10.24-7.76,10.24h-9.84a6.61,6.61,0,0,1-.93-.05A8.07,8.07,0,0,1,439,435V424.88h3a8.22,8.22,0,0,1,.17,1.92v5.92h12V404.08h-12V410a8.22,8.22,0,0,1-.17,1.92h-3v-9.68a7.14,7.14,0,0,1,.11-1.4,6.43,6.43,0,0,1,.77,0h9c5.7,0,7.64,2.1,8.68,9.36l.49,3.44h11V389Z"/><path class="cls-9" d="M489.49,446.4v-7.84h2.88c2.52,0,3,0,3-3.52V403.12c0-1.58-.62-3.65-2.37-4.29l-4.59-1.68V391h29.36v7.84h-6.56c-2.13,0-2.88.28-2.88,3.44V435c0,3.52.83,3.52,3,3.52h8.32c4.12,0,9.62-1.27,9.84-12.2l0-2h7.56v22Z"/><path d="M515.81,393v3.84h-4.56c-3.44,0-4.88,1.36-4.88,5.44V435c0,4.72,1.84,5.52,5,5.52h8.32c8.88,0,11.68-6.24,11.84-14.16h3.6v18H491.49v-3.84h.88c3.76,0,5-1,5-5.52V403.12c0-2.72-1.28-5.28-3.68-6.16l-3.28-1.2V393h25.36m4-4H486.45v9.59l2.63,1,3.28,1.2c.61.23,1.05,1.24,1.05,2.41V435a11.31,11.31,0,0,1-.08,1.48c-.22,0-.53,0-1,0h-4.88V448.4h51.68v-26H527.65l-.08,3.92c-.18,9-3.87,10.24-7.84,10.24h-8.32a6.61,6.61,0,0,1-.93-.05,8.07,8.07,0,0,1-.11-1.47v-32.8a7.14,7.14,0,0,1,.11-1.4,6.43,6.43,0,0,1,.77,0h8.56V389Z"/><path class="cls-9" d="M317.09,208.58v-4.17h4.34c.76,0,1.23-.36,1.23-2.14V185.84a12.41,12.41,0,0,1-4.89,1.66l-.58.09v-4.44l.39-.09c3.7-.84,6.18-3,6.82-5.95l.09-.4H330v25.51c0,1.89.67,2.14,1.32,2.14h4.25v4.22Z"/><path class="cls-10" d="M317.09,208.58v-4.17h4.34c.76,0,1.23-.36,1.23-2.14V185.84a12.41,12.41,0,0,1-4.89,1.66l-.58.09v-4.44l.39-.09c3.7-.84,6.18-3,6.82-5.95l.09-.4H330v25.51c0,1.89.67,2.14,1.32,2.14h4.25v4.22Z"/><path class="cls-9" d="M348.74,209.11c-4.72,0-9.48-2.29-9.48-7.41a4,4,0,0,1,4-4.15c2.06,0,4.14,1.09,4.14,3.52a3,3,0,0,1-2.19,2.94c.65,1.05,2.19,1.22,3.13,1.22,4.5,0,6.9-5.76,6.9-9.92,0-.45,0-.88,0-1.27a8.62,8.62,0,0,1-6.62,2.59c-6.11,0-10.38-4.19-10.38-10.2,0-7,5.79-10.2,11.54-10.2,8,0,13.12,6.29,13.12,16C362.87,202.33,357.19,209.11,348.74,209.11Zm1-28.9c-3.91,0-4.21,4.17-4.21,5.45,0,2.05.46,6.8,4.73,6.8,2.86,0,4.35-2.67,4.35-5.31S353.3,180.21,349.75,180.21Z"/><path class="cls-10" d="M348.74,209.11c-4.72,0-9.48-2.29-9.48-7.41a4,4,0,0,1,4-4.15c2.06,0,4.14,1.09,4.14,3.52a3,3,0,0,1-2.19,2.94c.65,1.05,2.19,1.22,3.13,1.22,4.5,0,6.9-5.76,6.9-9.92,0-.45,0-.88,0-1.27a8.62,8.62,0,0,1-6.62,2.59c-6.11,0-10.38-4.19-10.38-10.2,0-7,5.79-10.2,11.54-10.2,8,0,13.12,6.29,13.12,16C362.87,202.33,357.19,209.11,348.74,209.11Zm1-28.9c-3.91,0-4.21,4.17-4.21,5.45,0,2.05.46,6.8,4.73,6.8,2.86,0,4.35-2.67,4.35-5.31S353.3,180.21,349.75,180.21Z"/><path class="cls-9" d="M379.65,209.06c-7.29,0-13.22-7.35-13.22-16.39s5.93-16.44,13.22-16.44,13.22,7.38,13.22,16.44S386.94,209.06,379.65,209.06Zm-.86-28.66c-4,0-4.54,5.7-4.54,9.1,0,4.28,1.12,15.39,6.26,15.39,3.95,0,4.54-5.67,4.54-9C385.05,191.55,383.93,180.4,378.79,180.4Z"/><path class="cls-10" d="M379.65,209.06c-7.29,0-13.22-7.35-13.22-16.39s5.93-16.44,13.22-16.44,13.22,7.38,13.22,16.44S386.94,209.06,379.65,209.06Zm-.86-28.66c-4,0-4.54,5.7-4.54,9.1,0,4.28,1.12,15.39,6.26,15.39,3.95,0,4.54-5.67,4.54-9C385.05,191.55,383.93,180.4,378.79,180.4Z"/><path class="cls-9" d="M406.91,209.06c-5.45,0-11-3-11-8.76,0-2.87,1.74-4.72,4.44-4.72s4.34,1.44,4.34,3.76a3.15,3.15,0,0,1-2.82,3.1,3,3,0,0,0,.62,1.18,4.53,4.53,0,0,0,3.52,1.32c3.07,0,4.83-1.72,4.83-4.73,0-3.85-1.81-5.84-6.24-6.86l-.39-.09v-1.4l.37-.1c4.15-1.12,6.16-3.42,6.16-7a4.4,4.4,0,0,0-4.35-4.49c-2.35,0-3.68.83-4,2.46a3.31,3.31,0,0,1,2.83,3.33c0,2.19-2,3.38-3.95,3.38-3.18,0-4.63-2.77-4.63-5.35,0-3.43,2.95-6.19,5.86-7.15a14.72,14.72,0,0,1,4.53-.7c5.76,0,11.58,2.87,11.58,9.29a7.23,7.23,0,0,1-5.26,7,8,8,0,0,1,5.74,7.76c0,4.08-2.48,7-7,8.21A19.39,19.39,0,0,1,406.91,209.06Z"/><path class="cls-10" d="M406.91,209.06c-5.45,0-11-3-11-8.76,0-2.87,1.74-4.72,4.44-4.72s4.34,1.44,4.34,3.76a3.15,3.15,0,0,1-2.82,3.1,3,3,0,0,0,.62,1.18,4.53,4.53,0,0,0,3.52,1.32c3.07,0,4.83-1.72,4.83-4.73,0-3.85-1.81-5.84-6.24-6.86l-.39-.09v-1.4l.37-.1c4.15-1.12,6.16-3.42,6.16-7a4.4,4.4,0,0,0-4.35-4.49c-2.35,0-3.68.83-4,2.46a3.31,3.31,0,0,1,2.83,3.33c0,2.19-2,3.38-3.95,3.38-3.18,0-4.63-2.77-4.63-5.35,0-3.43,2.95-6.19,5.86-7.15a14.72,14.72,0,0,1,4.53-.7c5.76,0,11.58,2.87,11.58,9.29a7.23,7.23,0,0,1-5.26,7,8,8,0,0,1,5.74,7.76c0,4.08-2.48,7-7,8.21A19.39,19.39,0,0,1,406.91,209.06Z"/></svg>